<svg width="23" height="22" viewBox="0 0 23 22" fill="none" xmlns="http://www.w3.org/2000/svg">
<path d="M11.3366 20.1673C6.27398 20.1673 2.16992 16.0632 2.16992 11.0007C2.16992 5.93804 6.27398 1.83398 11.3366 1.83398C16.3992 1.83398 20.5033 5.93804 20.5033 11.0007C20.5033 16.0632 16.3992 20.1673 11.3366 20.1673ZM8.48589 12.0739L8.49749 12.0666C9.02891 13.821 9.29461 14.6982 9.29461 14.6982C9.39753 14.9828 9.53902 15.0336 9.71072 15.0104C9.88232 14.9871 9.97343 14.8943 10.0854 14.7862C10.0854 14.7862 10.4487 14.4356 11.1753 13.7344L13.5136 15.4646C13.9397 15.7 14.2473 15.5786 14.3531 15.0685L15.8727 7.89903C16.0405 7.2317 15.7462 6.96405 15.2288 7.1759L6.30683 10.6222C5.69815 10.8668 5.7011 11.2074 6.19601 11.3592L8.48589 12.0739Z" fill="white"/>
</svg>
