<svg width="401" height="308" viewBox="0 0 401 308" fill="none" xmlns="http://www.w3.org/2000/svg">
<path d="M0.898906 52.7822C-0.333464 33.4533 8.28202 15.7143 21.4169 6.70956C35.0246 -2.61651 52.1439 -0.625042 66.0825 11.1186C79.5315 22.4614 89.257 41.8458 88.0132 61.0125C86.8488 78.9412 75.5623 96.9927 58.8516 92.4975C44.7404 88.6989 32.5935 70.293 34.2448 53.2326C35.8962 36.1722 49.2902 24.8488 63.1406 24.5608C80.6166 24.2035 94.5808 41.9513 103.616 59.0771C114.594 79.8131 121.626 105.357 139.003 120.325C152.704 132.126 170.38 135.274 185.309 130.174C192.806 127.681 199.484 122.897 204.74 116.256C210.415 108.944 214.124 97.9039 212.4 87.1286C210.483 75.1418 201.149 68.442 191.785 69.7958C181.492 71.2956 174.507 80.9653 168.592 89.982C157.3 107.205 146.996 128.249 147.982 152.104C148.876 173.226 159.205 196.401 177.3 203.357C197.814 211.242 216.734 197.557 229.164 180.967C235.906 171.966 241.592 161.824 247.3 151.813C253.103 141.637 258.85 131.397 265.08 121.598C276.901 103.048 290.68 86.0298 308.526 75.8258C325.265 66.2512 345 63.1522 363.922 71.6728C381.549 79.5784 396.501 95.5969 407.972 113.699C422.325 136.306 432.083 162.289 442.402 187.424L475.506 268.044L491.376 306.703C491.718 307.534 490.735 308.154 490.39 307.329L457.682 227.677C447.045 201.763 436.837 175.545 425.526 149.987C415.451 127.238 403.377 104.892 386.221 88.6453C378.624 81.4497 370.165 75.5508 361.145 71.959C351.317 68.138 341.106 67.0817 331.332 68.875C288.728 76.3141 265.833 122.505 243.652 160.738C233.08 178.948 221.003 197.961 202.333 204.61C194.264 207.493 185.214 207.954 176.69 204.568C168.974 201.414 162.105 195.322 157.177 187.261C146.368 169.908 144.655 147.842 149.248 128.984C151.83 118.442 156.095 108.773 161.075 99.8577C166.168 90.7538 171.856 81.1433 179.213 74.5869C185.479 69.0063 194.13 65.9959 202.263 70.0411C209.528 73.6599 213.604 82.1834 213.922 91.0995C214.615 110.519 202.038 124.862 188.187 130.59C174.449 136.265 158.072 134.743 144.275 125.85C126.72 114.517 117.828 92.3711 108.741 72.353C100.14 53.3917 87.8271 30.5327 68.9384 26.5036C53.8503 23.2839 37.5967 34.5503 35.463 52.8939C33.2963 71.427 48.6173 92.2843 64.3714 91.7842C83.2531 91.1922 90.1806 63.8102 85.2676 44.2135C80.3545 24.6168 65.5103 7.87196 49.0865 3.26223C31.9914 -1.52301 15.5811 8.67894 7.37381 25.3925C3.34134 33.4526 1.49707 43.0119 2.07281 52.8691C2.13028 53.7824 0.968812 53.6601 0.898906 52.7822Z" fill="#3664DA"/>
</svg>
