<svg width="1009" height="632" viewBox="0 0 1009 632" fill="none" xmlns="http://www.w3.org/2000/svg">
<path d="M0.351201 107.323C-2.18244 67.584 15.5302 31.1144 42.5342 12.6015C70.5104 -6.57197 105.706 -2.4777 134.362 21.6661C162.012 44.9859 182.007 84.8384 179.45 124.243C177.056 161.103 153.852 198.215 119.496 188.973C90.485 181.164 65.5122 143.323 68.9073 108.249C72.3023 73.1739 99.8391 49.8941 128.314 49.3019C164.243 48.5675 192.952 85.0551 211.527 120.264C234.098 162.895 248.554 215.412 284.281 246.184C312.448 270.445 348.787 276.917 379.481 266.433C394.893 261.307 408.623 251.472 419.428 237.819C431.097 222.785 438.723 200.088 435.176 177.935C431.235 153.292 412.047 139.518 392.795 142.301C371.633 145.384 357.273 165.264 345.112 183.802C321.897 219.211 300.713 262.474 302.74 311.519C304.578 354.944 325.813 402.589 363.014 416.891C405.189 433.1 444.088 404.965 469.642 370.859C483.503 352.352 495.193 331.502 506.927 310.921C518.859 290 530.673 268.946 543.482 248.8C567.785 210.663 596.113 175.676 632.802 154.698C667.217 135.014 707.79 128.642 746.692 146.16C782.93 162.413 813.671 195.345 837.254 232.561C866.764 279.04 886.825 332.459 908.04 384.134L976.097 549.88L1008.73 629.358C1009.43 631.069 1007.41 632.342 1006.7 630.646L939.454 466.89C917.585 413.613 896.598 359.71 873.343 307.167C852.631 260.396 827.808 214.455 792.537 181.053C776.918 166.26 759.527 154.133 740.983 146.748C720.778 138.892 699.784 136.721 679.689 140.408C592.1 155.702 545.03 250.667 499.429 329.269C477.694 366.707 452.865 405.797 414.48 419.466C397.892 425.393 379.286 426.342 361.76 419.379C345.897 412.896 331.776 400.371 321.644 383.798C299.422 348.121 295.9 302.756 305.344 263.985C310.651 242.313 319.419 222.433 329.659 204.105C340.128 185.388 351.823 165.63 366.948 152.151C379.83 140.678 397.616 134.489 414.337 142.805C429.273 150.245 437.652 167.769 438.306 186.099C439.732 226.025 413.873 255.512 385.397 267.288C357.154 278.954 323.484 275.826 295.119 257.543C259.026 234.244 240.746 188.713 222.065 147.558C204.381 108.576 179.067 61.5797 140.234 53.2962C109.214 46.6768 75.7984 69.8394 71.4117 107.552C66.9572 145.654 98.4556 188.535 130.845 187.507C169.664 186.29 183.906 129.995 173.805 89.706C163.704 49.417 133.186 14.9913 99.4202 5.51417C64.2745 -4.32383 30.5365 16.6504 13.663 51.0119C5.37262 67.5826 1.58097 87.2358 2.76464 107.501C2.8828 109.379 0.49492 109.127 0.351201 107.323Z" fill="#3664DA"/>
</svg>
