<svg width="18" height="18" viewBox="0 0 18 18" fill="none" xmlns="http://www.w3.org/2000/svg">
<path d="M6.17166 10.4143C6.95272 9.63328 6.95273 8.36695 6.17168 7.58589L0.500075 1.91429C0.109551 1.52376 0.109551 0.890596 0.500075 0.500072C0.890598 0.109549 1.52376 0.109548 1.91429 0.500069L7.58589 6.17162C8.36694 6.95266 9.63326 6.95266 10.4143 6.17162L16.0859 0.500072C16.4764 0.10955 17.1096 0.109551 17.5001 0.500076C17.8906 0.890599 17.8906 1.52376 17.5001 1.91428L11.8285 7.5859C11.0475 8.36695 11.0475 9.63328 11.8285 10.4143L17.5001 16.0858C17.8906 16.4763 17.8906 17.1095 17.5001 17.5C17.1096 17.8906 16.4764 17.8906 16.0858 17.5001L10.4143 11.8285C9.63326 11.0475 8.36693 11.0475 7.58589 11.8285L1.91433 17.5001C1.52378 17.8906 0.890585 17.8906 0.500055 17.5C0.109539 17.1095 0.109552 16.4763 0.500083 16.0858L6.17166 10.4143Z" fill="white"/>
</svg>
