<svg width="430" height="443" viewBox="0 0 430 443" fill="none" xmlns="http://www.w3.org/2000/svg">
<path d="M-141.906 399.7C-128.864 430.005 -94.6194 449.125 -62.127 441.208C-46.3199 437.341 -32.3481 428.077 -22.6096 415.007C-13.0594 401.826 -8.96175 385.453 -11.1737 369.313C-13.2158 353.76 -20.6582 338.707 -32.7204 328.542C-43.8205 319.178 -59.6038 314.381 -73.9259 317.621C-88.7744 321.016 -98.386 333.739 -99.0576 348.773C-99.7928 365.263 -91.6152 381.253 -80.2792 392.702C-68.3259 404.705 -51.8074 412.341 -34.7353 409.201C-17.6631 406.061 -6.52675 392.692 -3.97636 375.829C-0.963103 355.935 -8.7867 337.015 -12.3445 317.776C-15.4258 300.914 -13.8985 283.53 -7.92448 267.468C3.46604 236.407 29.9955 210.334 62.4335 202.517C80.1863 198.239 100.898 199.149 116.064 210.316C129.869 220.481 135.705 238.755 132.347 255.346C128.952 272.1 116.146 284.422 99.5457 287.908C83.0907 291.357 65.2289 285.833 55.2089 271.936C45.5973 258.622 43.8819 240.43 49.1461 225.068C54.9548 208.232 69.4766 195.909 85.9043 190.03C123.116 176.825 161.29 196.92 185.088 225.45C210.011 255.328 222.037 293.232 244.083 324.966C263.097 352.349 294.001 378.905 329.398 376.694C364.45 374.537 388.955 344.25 399.747 313.135C413.497 273.501 411.292 230.319 423.145 190.194C433.782 154.174 457.807 118.154 496.662 109.626C514.324 105.579 532.865 109.746 547.116 120.966C560.33 131.377 569.679 147.658 567.909 164.895C566.094 182.732 552.924 197.966 536.923 205.11C517.863 213.61 495.046 210.825 476.83 201.47C447.505 186.39 428.89 153.628 428.89 120.802C428.963 82.0516 456.663 50.8728 487.286 30.6603C504.285 19.4483 522.683 10.6389 541.044 1.91139C542.233 1.34715 541.198 -0.418357 540.009 0.0912557C504.14 17.2095 466.338 35.5837 443.421 69.6474C433.782 83.9536 427.529 100.499 426.903 117.881C426.469 133.769 430.047 149.508 437.304 163.639C452.788 194.171 485.679 216.095 520.65 211.626C537.422 209.488 552.924 200.46 562.255 186.145C571.062 172.865 572.453 155.982 565.939 141.433C559.377 126.781 546.253 115.378 531.378 109.754C515.585 103.775 498.086 105.449 482.721 111.956C447.324 126.954 427.901 162.31 418.879 198.057C413.779 218.233 411.491 238.919 408.814 259.523C406 281.228 402.561 303.406 393.457 323.5C386.042 339.881 374.642 355.034 359.358 364.726C343.686 374.664 324.501 377.344 306.717 372.079C269.042 361.159 245.444 326.667 228.036 293.814C210.22 260.196 194.055 223.594 161.781 201.188C146.868 190.831 129.107 183.897 110.791 183.787C94.1998 183.678 77.3818 189.102 64.5028 199.723C52.0956 209.852 44.6654 224.869 44.127 240.903C43.6369 255.737 49.0553 271.154 60.6092 280.827C72.1631 290.501 88.5364 293.113 102.849 289.227C117.544 285.232 129.17 274.321 133.418 259.587C137.538 245.308 134.915 228.927 125.839 217.068C115.211 203.172 97.1224 197.857 80.259 198.166C47.712 198.776 18.1149 218.579 0.788592 245.49C-7.95209 258.932 -13.4979 274.207 -15.4213 290.137C-16.3388 298.203 -16.1923 306.354 -14.9857 314.381C-13.3248 325.439 -9.93938 336.132 -7.62497 347.053C-3.69501 365.627 -3.38641 389.516 -20.9577 401.493C-37.9301 413.069 -59.985 407.672 -74.6883 395.122C-88.3024 383.455 -98.6401 365.318 -96.8794 346.843C-96.0444 338.125 -91.9147 329.834 -84.7265 324.665C-78.0555 319.869 -69.6692 318.295 -61.5824 318.85C-24.325 321.58 -4.62077 365.099 -15.8842 397.971C-21.8381 415.298 -36.0785 429.15 -52.8693 436.084C-69.7312 443.032 -88.7342 442.523 -105.202 434.683C-120.817 427.324 -133.232 414.526 -140.136 398.672C-140.662 397.461 -142.423 398.508 -141.906 399.7Z" fill="#3664DA"/>
</svg>
