<svg width="1021" height="632" viewBox="0 0 1021 632" fill="none" xmlns="http://www.w3.org/2000/svg">
<path d="M0.134905 570.226C18.8375 613.461 67.9432 640.739 114.537 629.443C137.204 623.926 157.24 610.71 171.204 592.064C184.899 573.26 190.775 549.902 187.603 526.875C184.675 504.687 174.003 483.212 156.706 468.71C140.788 455.35 118.155 448.508 97.6175 453.13C76.3249 457.973 62.542 476.124 61.5789 497.572C60.5246 521.098 72.2512 543.909 88.507 560.242C105.648 577.367 129.335 588.26 153.816 583.781C178.298 579.302 194.267 560.229 197.924 536.171C202.245 507.79 191.026 480.798 185.924 453.351C181.506 429.295 183.696 404.494 192.263 381.579C208.597 337.267 246.64 300.07 293.155 288.918C318.613 282.815 348.313 284.114 370.061 300.044C389.857 314.547 398.226 340.617 393.41 364.286C388.543 388.188 370.178 405.767 346.374 410.74C322.778 415.66 297.164 407.78 282.795 387.954C269.012 368.96 266.553 343.006 274.101 321.09C282.431 297.071 303.255 279.492 326.812 271.104C380.174 252.266 434.915 280.933 469.04 321.635C504.78 364.26 522.025 418.335 553.638 463.608C580.905 502.674 625.221 540.56 675.979 537.405C726.244 534.328 761.384 491.119 776.859 446.729C796.577 390.187 793.414 328.581 810.412 271.338C825.665 219.95 860.116 168.562 915.833 156.397C941.162 150.623 967.75 156.568 988.184 172.574C1007.13 187.427 1020.54 210.654 1018 235.245C1015.4 260.692 996.514 282.426 973.568 292.618C946.237 304.744 913.517 300.771 887.396 287.424C845.344 265.911 818.65 219.171 818.65 172.341C818.754 117.058 858.476 72.577 902.389 43.7411C926.766 27.7457 953.148 15.1779 979.477 2.72689C981.182 1.92189 979.698 -0.596845 977.993 0.130206C926.558 24.5518 872.35 50.765 839.487 99.3615C825.665 119.771 816.698 143.375 815.8 168.173C815.178 190.839 820.309 213.294 830.715 233.453C852.919 277.012 900.085 308.289 950.232 301.914C974.284 298.863 996.514 285.983 1009.89 265.561C1022.52 246.616 1024.52 222.53 1015.18 201.774C1005.77 180.871 986.948 164.603 965.616 156.579C942.97 148.049 917.877 150.438 895.842 159.721C845.084 181.117 817.232 231.557 804.295 282.556C796.98 311.34 793.7 340.851 789.861 370.245C785.826 401.21 780.894 432.85 767.84 461.517C757.206 484.887 740.859 506.504 718.942 520.332C696.468 534.509 668.958 538.332 643.455 530.822C589.429 515.242 555.59 466.036 530.628 419.166C505.079 371.206 481.899 318.987 435.618 287.022C414.234 272.247 388.764 262.354 362.499 262.198C338.708 262.042 314.591 269.78 296.123 284.932C278.331 299.383 267.676 320.806 266.904 343.681C266.201 364.844 273.971 386.838 290.539 400.639C307.107 414.44 330.587 418.166 351.111 412.622C372.183 406.923 388.855 391.356 394.946 370.336C400.855 349.965 397.093 326.595 384.078 309.678C368.838 289.852 342.899 282.27 318.717 282.712C272.045 283.581 229.603 311.833 204.757 350.225C192.223 369.402 184.271 391.194 181.512 413.921C180.197 425.427 180.407 437.056 182.137 448.508C184.519 464.283 189.373 479.538 192.692 495.118C198.328 521.617 198.77 555.698 173.573 572.784C149.235 589.299 117.609 581.6 96.5242 563.696C77.0017 547.051 62.1776 521.176 64.7025 494.82C65.8999 482.382 71.8217 470.554 82.1296 463.179C91.6956 456.337 103.722 454.091 115.318 454.883C168.745 458.778 197 520.864 180.849 567.76C172.311 592.48 151.89 612.24 127.812 622.134C103.633 632.046 76.3825 631.32 52.7677 620.134C30.3767 609.636 12.5734 591.378 2.67284 568.759C1.91796 567.033 -0.606951 568.526 0.134905 570.226Z" fill="#3664DA"/>
</svg>
