<svg width="508" height="316" viewBox="0 0 508 316" fill="none" xmlns="http://www.w3.org/2000/svg">
<path d="M0.0671241 285.113C9.37263 306.73 33.8052 320.369 56.9881 314.722C68.2662 311.963 78.2348 305.355 85.183 296.032C91.9969 286.63 94.9206 274.951 93.3424 263.438C91.8853 252.343 86.5753 241.606 77.9692 234.355C70.0494 227.675 58.7883 224.254 48.5697 226.565C37.9756 228.986 31.1179 238.062 30.6387 248.786C30.1141 260.549 35.9487 271.955 44.0368 280.121C52.5652 288.684 64.3509 294.13 76.5316 291.891C88.7123 289.651 96.6579 280.115 98.4775 268.086C100.627 253.895 95.0454 240.399 92.507 226.675C90.3085 214.647 91.3983 202.247 95.6606 190.79C103.788 168.634 122.716 150.035 145.86 144.459C158.526 141.408 173.304 142.057 184.124 150.022C193.974 157.273 198.138 170.309 195.742 182.143C193.32 194.094 184.183 202.884 172.339 205.37C160.598 207.83 147.854 203.89 140.705 193.977C133.848 184.48 132.624 171.503 136.38 160.545C140.524 148.536 150.885 139.746 162.606 135.552C189.156 126.133 216.393 140.466 233.372 160.818C251.154 182.13 259.734 209.167 275.463 231.804C289.03 251.337 311.08 270.28 336.335 268.702C361.344 267.164 378.828 245.56 386.527 223.365C396.338 195.094 394.764 164.291 403.222 135.669C410.811 109.975 427.952 84.2812 455.674 78.1986C468.276 75.3115 481.505 78.2839 491.672 86.2871C501.101 93.7136 507.771 105.327 506.508 117.622C505.213 130.346 495.817 141.213 484.4 146.309C470.801 152.372 454.522 150.386 441.525 143.712C420.602 132.956 407.321 109.586 407.321 86.1703C407.372 58.5289 427.136 36.2885 448.985 21.8705C461.114 13.8728 474.24 7.58893 487.34 1.36344C488.189 0.960943 487.45 -0.298426 486.602 0.0650998C461.01 12.2759 434.039 25.3825 417.688 49.6807C410.811 59.8856 406.349 71.6874 405.902 84.0865C405.593 95.4195 408.146 106.647 413.324 116.726C424.371 138.506 447.839 154.144 472.789 150.957C484.756 149.431 495.817 142.992 502.474 132.78C508.758 123.308 509.751 111.265 505.103 100.887C500.421 90.4353 491.057 82.3013 480.444 78.2894C469.176 74.0244 456.691 75.2189 445.728 79.8604C420.473 90.5586 406.615 115.779 400.178 141.278C396.539 155.67 394.907 170.425 392.996 185.122C390.989 200.605 388.535 216.425 382.04 230.759C376.749 242.444 368.616 253.252 357.711 260.166C346.529 267.255 332.841 269.166 320.152 265.411C293.271 257.621 276.435 233.018 264.015 209.583C251.303 185.603 239.77 159.493 216.742 143.511C206.103 136.123 193.43 131.177 180.362 131.099C168.525 131.021 156.525 134.89 147.336 142.466C138.484 149.692 133.183 160.403 132.798 171.841C132.449 182.422 136.315 193.419 144.558 200.319C152.802 207.22 164.484 209.083 174.696 206.311C185.18 203.461 193.475 195.678 196.506 185.168C199.446 174.982 197.574 163.298 191.099 154.839C183.516 144.926 170.61 141.135 158.578 141.356C135.356 141.791 114.239 155.917 101.877 175.112C95.6409 184.701 91.6841 195.597 90.3118 206.96C89.6572 212.714 89.7617 218.528 90.6226 224.254C91.8076 232.141 94.223 239.769 95.8743 247.559C98.6783 260.809 98.8985 277.849 86.3616 286.392C74.2522 294.649 58.5163 290.8 48.0258 281.848C38.3123 273.526 30.9365 260.588 32.1928 247.41C32.7886 241.191 35.735 235.277 40.8637 231.59C45.6233 228.169 51.6068 227.045 57.3766 227.441C83.9591 229.389 98.0178 260.432 89.9815 283.88C85.7335 296.24 75.5732 306.12 63.5932 311.067C51.5626 316.023 38.0042 315.66 26.2546 310.067C15.114 304.818 6.25593 295.689 1.32988 284.38C0.954288 283.516 -0.301988 284.263 0.0671241 285.113Z" fill="#3664DA"/>
</svg>
