<svg width="194" height="749" viewBox="0 0 194 749" fill="none" xmlns="http://www.w3.org/2000/svg">
<path d="M0.159746 675.791C22.3061 727.029 80.4538 759.356 135.627 745.97C162.468 739.431 186.193 723.769 202.729 701.671C218.945 679.386 225.903 651.703 222.147 624.414C218.68 598.118 206.042 572.668 185.56 555.481C166.712 539.648 139.912 531.539 115.592 537.017C90.3788 542.756 74.058 564.267 72.9176 589.686C71.6692 617.567 85.555 644.601 104.804 663.958C125.101 684.253 153.15 697.163 182.139 691.854C211.128 686.546 230.038 663.943 234.369 635.431C239.485 601.795 226.201 569.806 220.159 537.278C214.927 508.769 217.521 479.377 227.665 452.22C247.006 399.704 292.054 355.621 347.135 342.404C377.28 335.172 412.449 336.711 438.202 355.59C461.643 372.777 471.552 403.674 465.85 431.724C460.086 460.052 438.34 480.885 410.153 486.779C382.212 492.61 351.882 483.27 334.867 459.775C318.547 437.264 315.634 406.505 324.572 380.532C334.436 352.067 359.094 331.233 386.989 321.293C450.176 298.967 514.997 332.941 555.406 381.179C597.726 431.694 618.147 495.78 655.581 549.434C687.869 595.733 740.345 640.632 800.45 636.893C859.969 633.246 901.58 582.039 919.905 529.431C943.253 462.421 939.508 389.411 959.635 321.57C977.698 260.669 1018.49 199.768 1084.47 185.35C1114.46 178.507 1145.94 185.553 1170.14 204.522C1192.58 222.125 1208.45 249.652 1205.45 278.795C1202.37 308.953 1180 334.71 1152.83 346.789C1120.47 361.16 1081.73 356.452 1050.79 340.634C1001 315.138 969.391 259.746 969.391 204.245C969.514 138.728 1016.55 86.0129 1068.55 51.8387C1097.41 32.8821 1128.65 17.9876 1159.83 3.23164C1161.85 2.27766 1160.09 -0.707387 1158.07 0.154307C1097.17 29.0969 1032.98 60.163 994.065 117.756C977.698 141.944 967.079 169.917 966.016 199.306C965.279 226.168 971.355 252.781 983.677 276.671C1009.97 328.294 1065.82 365.361 1125.2 357.806C1153.68 354.19 1180 338.926 1195.85 314.723C1210.8 292.271 1213.17 263.726 1202.1 239.127C1190.96 214.355 1168.68 195.075 1143.42 185.566C1116.6 175.457 1086.89 178.288 1060.8 189.289C1000.69 214.647 967.711 274.425 952.392 334.864C943.731 368.977 939.847 403.951 935.301 438.787C930.523 475.485 924.682 512.982 909.224 546.957C896.633 574.653 877.276 600.272 851.323 616.659C824.711 633.461 792.135 637.992 761.936 629.091C697.963 610.627 657.893 552.311 628.334 496.765C598.081 439.926 570.633 378.04 515.83 340.157C490.508 322.647 460.348 310.922 429.248 310.738C401.075 310.553 372.518 319.724 350.649 337.68C329.581 354.807 316.964 380.196 316.05 407.306C315.218 432.386 324.418 458.451 344.037 474.808C363.656 491.164 391.458 495.58 415.762 489.01C440.714 482.255 460.456 463.806 467.669 438.895C474.665 414.753 470.211 387.056 454.8 367.007C436.753 343.512 406.038 334.526 377.403 335.049C322.137 336.08 271.88 369.562 242.46 415.061C227.618 437.788 218.201 463.614 214.935 490.548C213.377 504.185 213.626 517.967 215.675 531.539C218.495 550.234 224.243 568.313 228.173 586.778C234.847 618.182 235.371 658.573 205.534 678.822C176.714 698.394 139.264 689.269 114.298 668.051C91.1802 648.325 73.6265 617.659 76.6163 586.424C78.0342 571.683 85.0465 557.666 97.2524 548.926C108.58 540.817 122.82 538.155 136.552 539.094C199.816 543.71 233.275 617.29 214.149 672.867C204.039 702.164 179.858 725.582 151.347 737.307C122.715 749.055 90.4471 748.194 62.484 734.938C35.9701 722.496 14.8886 700.857 3.16499 674.052C2.27113 672.005 -0.718711 673.775 0.159746 675.791Z" fill="#3664DA"/>
</svg>
